<?xml version="1.0" encoding="UTF-8" standalone="no"?>
<!-- Created with Inkscape (http://www.inkscape.org/) -->

<svg
   width="210mm"
   height="297mm"
   viewBox="0 0 210 297"
   version="1.1"
   id="svg1"
   xml:space="preserve"
   inkscape:version="1.4 (e7c3feb100, 2024-10-09)"
   sodipodi:docname="change_scrap_tool.svg"
   inkscape:export-filename="change_scrap_tool.png"
   inkscape:export-xdpi="96"
   inkscape:export-ydpi="96"
   xmlns:inkscape="http://www.inkscape.org/namespaces/inkscape"
   xmlns:sodipodi="http://sodipodi.sourceforge.net/DTD/sodipodi-0.dtd"
   xmlns="http://www.w3.org/2000/svg"
   xmlns:svg="http://www.w3.org/2000/svg"><sodipodi:namedview
     id="namedview1"
     pagecolor="#ffffff"
     bordercolor="#000000"
     borderopacity="0.25"
     inkscape:showpageshadow="2"
     inkscape:pageopacity="0.0"
     inkscape:pagecheckerboard="0"
     inkscape:deskcolor="#d1d1d1"
     inkscape:document-units="mm"
     inkscape:zoom="0.40934694"
     inkscape:cx="429.95313"
     inkscape:cy="544.77016"
     inkscape:window-width="3840"
     inkscape:window-height="2082"
     inkscape:window-x="0"
     inkscape:window-y="41"
     inkscape:window-maximized="1"
     inkscape:current-layer="layer1" /><defs
     id="defs1"><marker
       style="overflow:visible"
       id="Triangle"
       refX="0"
       refY="0"
       orient="auto-start-reverse"
       inkscape:stockid="Triangle arrow"
       markerWidth="0.8"
       markerHeight="0.8"
       viewBox="0 0 1 1"
       inkscape:isstock="true"
       inkscape:collect="always"
       preserveAspectRatio="xMidYMid"><path
         transform="scale(0.5)"
         style="fill:context-stroke;fill-rule:evenodd;stroke:context-stroke;stroke-width:1pt"
         d="M 5.77,0 -2.88,5 V -5 Z"
         id="path135" /></marker></defs><g
     inkscape:label="Layer 1"
     inkscape:groupmode="layer"
     id="layer1"><path
       style="fill:#0c0c0c;stroke:none"
       d="m 107.02925,148.09261 c -0.7455,-0.0588 -1.50333,-0.30875 -2.20101,0.10401 -0.81527,0.48232 -1.16929,2.41786 -0.31998,3.05048 0.44384,0.3306 1.39971,0.14751 1.92832,0.14751 -8.5e-4,1.29684 -0.79236,2.66454 -2.286,2.43731 -0.59186,-0.09 -1.18086,-0.53741 -1.69333,-0.82864 -0.4324,-0.24573 -1.0827,-0.47639 -1.32775,-0.93924 -0.90748,-1.714 1.14014,-2.07358 1.37518,-3.54809 0.2083,-1.30677 -0.7433,-1.9853 -1.22087,-3.048 -0.17761,-0.39522 0.0562,-0.78517 -0.0966,-1.18534 -1.564152,0.56248 0.60744,2.69568 0.75266,3.556 0.2208,1.30818 -0.75807,1.34633 -1.37891,2.13993 -0.37719,0.48216 -0.14781,2.12967 0.19057,2.59259 0.28285,0.38695 0.79263,0.57789 1.19768,0.80675 0.98158,0.5546 1.9554,1.24247 3.13267,0.95126 1.11628,-0.27613 2.43425,-1.89889 1.79759,-3.09465 -0.39772,-0.74699 -1.46854,-0.0189 -2.00808,-0.49539 -0.19607,-0.17315 -0.20106,-0.4586 -0.21794,-0.69915 -0.0479,-0.68219 0.14977,-1.3994 0.93643,-1.508 0.51297,-0.0708 1.40718,0.3453 1.524,-0.35467"
       transform="translate(3.080346,-0.26181793)"
       id="path8" /><path
       style="fill:#0c0c0c;stroke:none"
       d="m 106.52154,141.45936 c -1.68709,0.5151 -0.29152,2.99305 -1.54001,3.65302 -1.08609,0.57411 -1.43263,-2.74002 -2.74494,-1.54844 -0.5904,0.53609 -0.22339,1.85226 -0.015,2.49649 0.0732,0.2263 0.24615,0.7951 0.57032,0.74711 0.34037,-0.0504 0.14504,-0.48252 0.0697,-0.66244 -0.16421,-0.39216 -0.73867,-1.90209 -0.15647,-2.15704 0.33899,-0.14844 0.59316,0.51102 0.70961,0.71771 0.34293,0.60868 0.98138,1.33319 1.75174,0.96746 1.32799,-0.63048 0.50472,-2.31633 1.18487,-3.33343 0.70045,-1.04744 1.61831,0.64762 2.23381,0.2378 0.28522,-0.18991 -0.13838,-0.55417 -0.28758,-0.65669 -0.4365,-0.29992 -1.24318,-0.62424 -1.77604,-0.46155"
       transform="rotate(68.91768,114.60222,154.10903)"
       id="path9" /><path
       style="fill:#0c0c0c;stroke:none"
       d="m 107.02925,148.09261 c -0.7455,-0.0588 -1.50333,-0.30875 -2.20101,0.10401 -0.81527,0.48232 -0.007,1.69033 0.84256,2.32295 0.44384,0.3306 0.77024,0.59408 0.8914,0.92596 -8.5e-4,1.29684 -0.22387,3.40194 -1.7175,3.17471 -0.59186,-0.09 -1.14559,-0.19169 -1.65806,-0.48292 -0.4324,-0.24573 -0.81148,-2.49137 -1.05653,-2.95422 -0.90748,-1.714 0.13958,-1.19264 0.37462,-2.66715 0.2083,-1.30677 -0.7433,-1.9853 -1.22087,-3.048 -0.17761,-0.39522 0.0562,-0.78517 -0.0966,-1.18534 -1.564152,0.56248 0.8004,2.68482 0.75266,3.556 -0.0214,0.39116 -0.0546,0.86153 -0.37835,1.25899 -0.38661,0.47464 -0.14781,2.12967 0.19057,2.59259 0.28285,0.38695 0.52141,2.59287 0.92646,2.82173 0.98158,0.5546 1.5174,0.92839 2.69467,0.63718 1.11628,-0.27613 2.14291,-2.71885 1.50625,-3.91461 -0.39772,-0.74699 -0.44672,-0.784 -0.98625,-1.26049 -0.19607,-0.17315 -0.64231,-0.24897 -0.77771,-0.44851 -0.41059,-0.60507 -0.31228,-0.88494 0.47438,-0.99354 0.51297,-0.0708 1.40718,0.3453 1.524,-0.35467"
       transform="rotate(138.9205,113.03743,145.34951)"
       id="path10-6"
       sodipodi:nodetypes="cssccsssscsssssssssc" /><path
       style="fill:none;fill-opacity:0.350696;stroke:#000000;stroke-width:2.64566932;stroke-linejoin:round;stroke-dasharray:none;marker-end:url(#Triangle)"
       d="m 417.11363,575.87269 c 15.82765,1.41588 23.37404,-5.1137 27.36853,-17.75986"
       id="path11"
       transform="matrix(0.26458333,0,0,0.26458333,1.4542982,-0.48476605)"
       sodipodi:nodetypes="cc" /><path
       style="fill:none;fill-opacity:0.350696;stroke:#000000;stroke-width:2.64566933;stroke-linejoin:round;stroke-dasharray:none;marker-end:url(#Triangle)"
       d="m 417.11363,575.87269 c 15.82765,1.41588 23.37404,-5.1137 27.36853,-17.75986"
       id="path13"
       transform="matrix(-0.26288881,0.02989668,-0.02989668,-0.26288881,237.52052,274.61687)"
       sodipodi:nodetypes="cc" /></g></svg>
