<?xml version="1.0" encoding="UTF-8" standalone="no"?>
<svg
   id="Capa_1"
   enable-background="new 0 0 511.996 511.996"
   height="512"
   viewBox="0 0 511.996 511.996"
   width="512"
   version="1.1"
   xmlns="http://www.w3.org/2000/svg"
   xmlns:svg="http://www.w3.org/2000/svg">
  <defs
     id="defs2" />
  <path
     id="Path_351_"
     style="clip-rule:evenodd;fill-rule:evenodd"
     d="m 210.28544,0.08593683 c 116.138,0 210.28742,94.14746917 210.28742,210.28546317 0,53.29962 -19.86795,101.93297 -52.55233,138.99501 L 506.6425,480.87124 c 7.138,7.141 7.138,18.71622 0,25.85722 -7.234,6.91 -18.62322,6.91 -25.85722,0 L 341.52855,374.61817 C 305.55087,403.40434 259.94513,420.65882 210.28544,420.65882 94.147444,420.65882 -2.62e-5,326.5094 -2.62e-5,210.3714 0.1259738,94.285406 94.199444,0.21193683 210.28544,0.08593683 Z m 0,36.57198017 c -95.896,0.106 -173.608486,77.817483 -173.713486,173.713483 0,95.939 77.774486,173.71349 173.713486,173.71349 95.939,0 173.71544,-77.77449 173.71544,-173.71349 0,-95.939 -77.77544,-173.713483 -173.71544,-173.713483 z" />
  <path
     id="Path_350_"
     d="m 88.065264,137.95885 h 27.110366 c 7.48552,0 13.55519,-6.06818 13.55519,-13.55519 V 97.293287 c 0,-7.485534 6.06818,-13.555198 13.55519,-13.555198 7.48552,0 13.55519,6.068181 13.55519,13.555198 v 27.110373 c 0,7.48552 6.06818,13.55519 13.55519,13.55519 h 27.11037 c 7.48553,0 13.55519,6.06818 13.55519,13.55519 0,7.48701 -6.06818,13.55519 -13.55519,13.55519 h -27.11037 c -7.48552,0 -13.55519,6.06818 -13.55519,13.55519 v 27.11037 c 0,7.48553 -6.06818,13.55519 -13.55519,13.55519 -7.48552,0 -13.55519,-6.06818 -13.55519,-13.55519 v -27.11037 c 0,-7.48552 -6.06818,-13.55519 -13.55519,-13.55519 H 88.065264 c -7.48553,0 -13.55519,-6.06818 -13.55519,-13.55519 0,-7.48701 6.06966,-13.55519 13.55519,-13.55519 z"
     style="clip-rule:evenodd;fill-rule:evenodd;stroke-width:1.48257" />
  <path
     id="Path_349_"
     d="m 217.54402,260.18544 h 113.4829 c 7.83363,0 14.18556,6.35038 14.18556,14.18556 0,7.83363 -6.35038,14.18556 -14.18556,14.18556 h -113.4829 c -7.83363,0 -14.18556,-6.35038 -14.18556,-14.18556 0,-7.83363 6.35193,-14.18556 14.18556,-14.18556 z"
     style="clip-rule:evenodd;fill-rule:evenodd;stroke-width:1.55152" />
  <path
     d="m 103.24997,317.407 c 3.57,3.569 9.358,3.569 12.928,0 l 201.143,-201.143 c 3.465,-3.587 3.415,-9.29 -0.111,-12.817 -3.527,-3.527 -9.229,-3.576 -12.817,-0.111 l -201.143,201.143 c -3.568996,3.57 -3.568996,9.357 0,12.928 z"
     id="path3" />
</svg>
