<?xml version="1.0" encoding="UTF-8" standalone="no"?>
<!-- Created with Inkscape (http://www.inkscape.org/) -->

<svg
   width="100mm"
   height="100mm"
   viewBox="0 0 100 100"
   version="1.1"
   id="svg1"
   xml:space="preserve"
   inkscape:version="1.4 (e7c3feb100, 2024-10-09)"
   sodipodi:docname="zoom_plus_minus.svg"
   xmlns:inkscape="http://www.inkscape.org/namespaces/inkscape"
   xmlns:sodipodi="http://sodipodi.sourceforge.net/DTD/sodipodi-0.dtd"
   xmlns="http://www.w3.org/2000/svg"
   xmlns:svg="http://www.w3.org/2000/svg"><sodipodi:namedview
     id="namedview1"
     pagecolor="#ffffff"
     bordercolor="#000000"
     borderopacity="0.25"
     inkscape:showpageshadow="2"
     inkscape:pageopacity="0.0"
     inkscape:pagecheckerboard="0"
     inkscape:deskcolor="#d1d1d1"
     inkscape:document-units="mm"
     inkscape:zoom="3.2747756"
     inkscape:cx="165.66021"
     inkscape:cy="175.88991"
     inkscape:window-width="3840"
     inkscape:window-height="2082"
     inkscape:window-x="0"
     inkscape:window-y="41"
     inkscape:window-maximized="1"
     inkscape:current-layer="layer1"
     showguides="true"
     showgrid="false" /><defs
     id="defs1" /><g
     inkscape:label="Layer 1"
     inkscape:groupmode="layer"
     id="layer1"><g
       id="g3"
       transform="translate(1.4559481,2.5949103e-5)"><g
         id="g1"
         transform="translate(-8.9958338,-2.6458334)"><path
           style="fill:#000000;stroke-width:0.699187"
           d="m 48.740795,41.482162 c -0.228284,-0.09178 -0.581772,-0.440306 -0.785529,-0.774497 -0.31727,-0.52037 -0.370562,-0.933023 -0.371157,-2.873791 l -6.92e-4,-2.266164 h -2.133359 c -3.091463,0 -3.971421,-0.484592 -3.971421,-2.187085 -0.05966,-0.92938 0.304233,-1.992822 1.257959,-2.067761 h 2.409077 2.409077 l 0.06062,-2.493735 c 0.05789,-2.382298 0.08149,-2.514612 0.528473,-2.961092 0.920054,-0.919018 2.281105,-0.915641 3.14967,0.0078 0.42577,0.452675 0.455842,0.626471 0.512875,2.963945 l 0.06055,2.483079 h 2.409076 2.409077 c 0.920879,0.202526 1.240918,1.135284 1.25795,2.067761 0,1.721979 -0.824202,2.187085 -3.875671,2.187085 h -2.229099 l -6.92e-4,2.266164 c -5.95e-4,1.938552 -0.05412,2.353757 -0.370073,2.872008 -0.539325,0.884584 -1.662198,1.204252 -2.726704,0.77628 z"
           id="path195047"
           sodipodi:nodetypes="ssscsscccsssccccsscssss" /><path
           id="path195044"
           style="fill:#000000;stroke-width:0.699187"
           d="M 26.13111,56.332868 37.408789,43.332609 c 0.04517,-0.05207 -0.375749,-0.697404 -0.834996,-1.396626 -1.763844,-2.6855 -2.60535,-5.873472 -2.43787,-9.235667 0.217527,-4.366919 1.754126,-7.709523 4.894949,-10.648108 3.004272,-2.810823 5.970084,-4.026933 10.228587,-4.194164 1.983881,-0.07791 2.565255,-0.03118 3.977354,0.319444 5.13648,1.275499 9.284428,4.885954 11.06597,9.632043 C 67.914721,37.43182 61.737067,47.634546 51.514407,48.93021 47.81145,49.399539 43.943708,48.4388 40.783871,46.264783 L 39.97167,45.705972 28.704586,58.845103 C 27.432639,60.328386 24.884805,57.769536 26.13111,56.332868 Z M 52.789575,45.260933 c 5.804089,-1.475352 9.850025,-7.374471 9.075238,-13.232035 -0.403876,-3.053437 -1.389219,-5.062643 -3.536756,-7.211791 -1.293885,-1.294865 -1.775012,-1.656224 -3.064181,-2.301405 -5.848717,-2.927082 -12.692783,-0.957131 -16.074395,4.626746 -2.49683,4.122877 -2.288908,9.420785 0.52446,13.363368 2.959634,4.147549 8.104801,6.018655 13.075634,4.755117 z"
           sodipodi:nodetypes="sscssscssscssssscsss" /></g><g
         id="g2"
         transform="translate(5.8208336,2.6458334)"><path
           style="fill:#000000;stroke-width:0.699187"
           d="m 43.215379,68.500197 c -1.105268,-0.257986 -1.55266,-2.166725 -0.893037,-3.108467 0.657453,-0.938645 0.87497,-0.965074 7.943478,-0.965074 7.068516,0 7.286033,0.02643 7.943485,0.965074 0.158793,0.226711 0.288716,0.776615 0.288716,1.222011 0.05964,0.92938 -0.304224,1.872982 -1.25795,2.067762 l -6.817004,-0.01175 c -2.464368,0.03699 -6.515542,-0.008 -7.207688,-0.16956 z"
           id="path195043"
           sodipodi:nodetypes="sssssccs" /><path
           id="path195040"
           style="fill:#000000;stroke-width:0.699187"
           d="m 47.213435,81.908122 c -4.155261,-0.840157 -7.575458,-3.112955 -9.972638,-6.627049 -1.518721,-2.226337 -2.383415,-4.883835 -2.551848,-7.84269 -0.42942,-7.543571 4.447762,-14.142456 11.877011,-16.069737 1.810014,-0.469546 5.622394,-0.473455 7.399727,-0.0076 1.491793,0.391021 4.409983,1.712743 5.32875,2.413517 L 59.979024,54.36741 71.65881,41.428063 c 1.089576,-1.207077 3.652255,0.910634 2.528566,2.169744 L 62.997254,56.136494 c -0.40588,0.454794 -0.473496,0.589534 -0.295022,0.850897 1.47504,2.160131 2.345927,4.096103 2.832603,6.296815 1.641852,7.424458 -2.47601,15.081982 -9.614871,17.879681 -2.511312,0.984176 -6.031523,1.285071 -8.706529,0.744215 z m 6.139404,-3.325334 c 2.486113,-0.662557 5.029865,-2.303646 6.51721,-4.204538 1.89627,-2.423513 2.72051,-4.762214 2.727593,-7.739259 0.0063,-2.631457 -0.59176,-4.697265 -1.954321,-6.751029 -1.679384,-2.531306 -3.922636,-4.255121 -6.61841,-5.085904 -3.996179,-1.231533 -8.474722,-0.360529 -11.624569,2.260799 -1.365961,1.136765 -2.343959,2.40542 -3.188312,4.135863 -0.980586,2.009641 -1.257727,3.194349 -1.253658,5.359073 0.0042,2.231658 0.31646,3.586444 1.288221,5.589007 0.63218,1.302768 0.961883,1.747465 2.227449,3.004372 2.032565,2.018638 3.776064,2.998312 6.357325,3.572166 1.386948,0.30834 4.095857,0.239387 5.521472,-0.14055 z"
           sodipodi:nodetypes="cssssscsssccsccsscsssssssss" /></g></g><rect
       style="fill:none;stroke:none;stroke-width:0.264583"
       id="rect195047"
       width="100"
       height="100"
       x="0"
       y="0" /></g></svg>
